<svg id="Layer_1" data-name="Layer 1" xmlns="http://www.w3.org/2000/svg" viewBox="0 0 793.18 587.6"><defs><style>.cls-1,.cls-3{fill:#a67c52;}.cls-1,.cls-6{stroke:#000;}.cls-1,.cls-2,.cls-3,.cls-4,.cls-5,.cls-6{stroke-miterlimit:10;}.cls-2{fill:#8c6239;}.cls-2,.cls-3,.cls-4{stroke:#754c24;}.cls-2,.cls-3,.cls-4,.cls-5,.cls-6{stroke-width:4px;}.cls-4{fill:#754c24;}.cls-5{fill:none;stroke:#8c6239;}.cls-6{fill:#fff;}.cls-7{font-size:62px;fill:red;font-family:Impact, Impact;}</style></defs><title>crate</title><path class="cls-1" d="M255.5,1212.5" transform="translate(-184.94 -541.47)"/><path class="cls-1" d="M518.5,1382.5" transform="translate(-184.94 -541.47)"/><path class="cls-1" d="M620.5,1408.5" transform="translate(-184.94 -541.47)"/><path class="cls-2" d="M-349,678" transform="translate(-184.94 -541.47)"/><path class="cls-3" d="M959.5,1003.5l-446,121q4-208.46,4-416.89v-.11l438-99Q957.5,806,959.5,1003.5Z" transform="translate(-184.94 -541.47)"/><path class="cls-3" d="M199.5,984.5l318,140v-417l-316-97Q200.5,797.5,199.5,984.5Z" transform="translate(-184.94 -541.47)"/><path class="cls-3" d="M955.5,608.5l-438,99-316-97,340-67Z" transform="translate(-184.94 -541.47)"/><path class="cls-4" d="M976,630,517,738V708L974,603Q975,616.5,976,630Z" transform="translate(-184.94 -541.47)"/><line class="cls-5" x1="386.06" y1="380.53" x2="717.06" y2="298.53"/><path class="cls-2" d="M1021,800" transform="translate(-184.94 -541.47)"/><path class="cls-4" d="M518,737,187,633q.5-13.5,1-27L516.47,708.74Z" transform="translate(-184.94 -541.47)"/><path class="cls-2" d="M226,526" transform="translate(-184.94 -541.47)"/><line class="cls-5" x1="388.06" y1="300.53" x2="719.06" y2="218.53"/><line class="cls-5" x1="388.06" y1="459.53" x2="719.06" y2="377.53"/><path class="cls-2" d="M170,729" transform="translate(-184.94 -541.47)"/><line class="cls-5" x1="278.06" y1="298.53" x2="63.06" y2="223.53"/><line class="cls-5" x1="276.06" y1="377.53" x2="61.06" y2="302.53"/><path class="cls-2" d="M599,1074c-11.9,5.92-18.9,4.86-23,3,0,0-6.15-2.79-19-30h0L894,663l25,58Z" transform="translate(-184.94 -541.47)"/><line class="cls-5" x1="275.06" y1="456.53" x2="60.06" y2="381.53"/><path class="cls-2" d="M963,672,518,783V737L964,633Q963.5,652.5,963,672Z" transform="translate(-184.94 -541.47)"/><path class="cls-2" d="M210.32,709.26c-3.34-12.77-1.75-19.89.15-24,0,0,2.85-6.11,25.54-17.13h0Q367.88,857.84,499.75,1047.5l-48.1,21Z" transform="translate(-184.94 -541.47)"/><path class="cls-2" d="M518,783,196,678q.5-21,1-42L517,738Q517.5,760.5,518,783Z" transform="translate(-184.94 -541.47)"/><path class="cls-2" d="M146,746" transform="translate(-184.94 -541.47)"/><path class="cls-2" d="M959,1003,518,1125v-46L959,962Z" transform="translate(-184.94 -541.47)"/><path class="cls-2" d="M944,1050" transform="translate(-184.94 -541.47)"/><path class="cls-2" d="M516,1126,197,985q1-21.5,2-43l317,138Z" transform="translate(-184.94 -541.47)"/><path class="cls-2" d="M166,963" transform="translate(-184.94 -541.47)"/><path class="cls-2" d="M573,1065l-55,14V783l53-13Q572,917.5,573,1065Z" transform="translate(-184.94 -541.47)"/><path class="cls-2" d="M518,1079l-55-23q.5-145.5,1-291l52,19Q517,931.5,518,1079Z" transform="translate(-184.94 -541.47)"/><path class="cls-2" d="M245,962l-46-20.36q1-131.32,2-262.64l48,15.27Q247,828.13,245,962Z" transform="translate(-184.94 -541.47)"/><path class="cls-2" d="M251,1048" transform="translate(-184.94 -541.47)"/><path class="cls-2" d="M959,961.36,904,975V686.66L957,674Q958,817.69,959,961.36Z" transform="translate(-184.94 -541.47)"/><rect class="cls-6" x="241.92" y="826.77" width="227.45" height="71.25" transform="translate(-403.55 -414.22) rotate(-15.58)"/><text class="cls-7" transform="translate(81.69 369.47) rotate(-15.51)">FRAGILE</text></svg>