<svg id="Layer_1" data-name="Layer 1" xmlns="http://www.w3.org/2000/svg" xmlns:xlink="http://www.w3.org/1999/xlink" viewBox="0 0 1102 2011"><defs><style>.cls-1{fill:url(#linear-gradient);}.cls-2,.cls-8{fill:#fff;stroke:#fff;}.cls-2,.cls-3,.cls-4,.cls-5,.cls-6,.cls-7,.cls-8{stroke-miterlimit:10;}.cls-2{stroke-width:11px;}.cls-3{fill:#9ed4f0;stroke:#9ed4f0;}.cls-3,.cls-5{stroke-width:4px;}.cls-4,.cls-6,.cls-7{fill:#39b54a;stroke:#39b54a;}.cls-4{stroke-width:10px;}.cls-5{fill:#71b9df;stroke:#71b9df;}.cls-6{stroke-width:2px;}.cls-8{stroke-width:5px;}</style><linearGradient id="linear-gradient" x1="141.5" y1="958" x2="1541.5" y2="958" gradientTransform="translate(-405.5 1541.5) rotate(-90)" gradientUnits="userSpaceOnUse"><stop offset="0.06" stop-color="#fff"/><stop offset="0.08" stop-color="#f9ffff"/><stop offset="0.22" stop-color="#cfffff"/><stop offset="0.35" stop-color="#aeffff"/><stop offset="0.48" stop-color="#97ffff"/><stop offset="0.6" stop-color="#89ffff"/><stop offset="0.7" stop-color="#84ffff"/><stop offset="0.75" stop-color="#72fcff"/><stop offset="0.86" stop-color="#44f2ff"/><stop offset="1" stop-color="#00e5ff"/></linearGradient></defs><title>gameBackground</title><rect class="cls-1" x="9" width="1087" height="1400"/><path class="cls-2" d="M17,182.43c34.51,1.53,75.87,7.7,75.87,7.7H95c-1.31-6.47,95.15,11.66,106.67,3.3h1.1q10.44,6.6,20.89,0a129.74,129.74,0,0,0,75.87,0q36.3,20.9,72.58,3.3a74.55,74.55,0,0,0,47.28,0c43.86-2.87,48.94-59.84-5.49-58.29,21.62-24.25,22.75-64.77-11-68.17l-.55-.55c-26.63-39.8-69.33-35.4-85.29,9.84l-1,.6q-19.8-4.39-28.59,17.6l-2.2,2.2Q217.64,75.21,205,147.24l-.63,2.49q-6.69.38-19,9.94l-1.83-.33q-10.44-6-20.89,0l-1.65-1.1c-8.11-6.82-22.26-2.67-38.88,6l-.71.62C94.47,176,59.53,180.91,20.26,182.43" transform="translate(9 29)"/><path class="cls-3" d="M455.91,675.19l4.7-59.59c-12.9-7.62-17.09-17.47-25.81-13.67l-13.17,12.74q-20-11.42-51.69-22.65c-21.78,11.91-41.8,28.22-60.44,48L309,677.58Z" transform="translate(9 29)"/><path class="cls-3" d="M1088,600q-32.82-40.66-73.93-82.42l-2.69,3q-35.5,28-66.55,93.49L957,779.85l131-90.23Z" transform="translate(9 29)"/><rect class="cls-4" x="6" y="1066" width="1091" height="940"/><path class="cls-3" d="M44,572l-2,2Q17.51,592.74-7,631.8v96.38L108,649l2-2Q85,609.5,44,572Z" transform="translate(9 29)"/><path class="cls-5" d="M1088,678.07l-19.25-12.91-41,32.63c-63-68.08-123.88-128.5-177.68-164.25L806.88,573c-46-49.35-98.22-97.22-156.14-143.71h-1.32q-33.84,31.77-54.42,63.5l-17.3-17.11L574.91,474c-58.63,54.16-114,121.52-166.4,200.8l-1.18,1.72C342.77,630.88,278.53,594.6,214.81,574h-1.32C134.17,609.85,60.38,652.8-7,704v332.53l1095-15.67Z" transform="translate(9 29)"/><polygon class="cls-4" points="854 963 872 1086 288 1102 241 1107 854 963"/><polyline class="cls-6" points="2.36 960.5 67.4 962.61 67.39 961.61 44.53 899.92 57.62 905.74 40.68 837.96 56.92 854.74 54.83 848.77 31.61 760.08 29.12 760.61 11.32 847.87 10.87 851.37 23.71 840.2 7.65 908.42 20.58 903.25 2.35 959.5"/><polyline class="cls-6" points="479.96 1045.5 545 1047.61 544.99 1046.61 522.14 984.92 535.22 990.74 518.29 922.96 534.52 939.74 532.44 933.77 509.21 845.08 506.72 845.61 488.92 932.87 488.47 936.37 501.31 925.2 485.25 993.42 498.18 988.25 479.95 1044.5"/><polyline class="cls-6" points="944.97 960.5 1010 962.61 1009.99 961.61 987.14 899.92 1000.22 905.74 983.29 837.96 999.52 854.74 997.44 848.77 974.22 760.08 971.72 760.61 953.92 847.87 953.47 851.37 966.32 840.2 950.25 908.42 963.18 903.25 944.95 959.5"/><polyline class="cls-6" points="223.97 986.5 289 988.61 288.99 987.61 266.14 925.92 279.22 931.74 262.29 863.96 278.52 880.74 276.44 874.77 253.22 786.08 250.72 786.61 232.92 873.87 232.47 877.37 245.31 866.2 229.25 934.42 242.18 929.25 223.95 985.5"/><polyline class="cls-6" points="797.97 983.5 863 985.61 862.99 984.61 840.14 922.92 853.22 928.74 836.29 860.96 852.52 877.74 850.44 871.77 827.22 783.08 824.72 783.61 806.92 870.87 806.47 874.37 819.32 863.2 803.25 931.42 816.18 926.25 797.95 982.5"/><polyline class="cls-7" points="732 1006.5 635.5 1006 665.5 977 665.5 976 646.5 978 647 976.5 670 940.5 670.5 941 653.5 947 683.5 902 715.5 948 695.5 942 722.5 979 702.5 975 733.5 1006"/><polyline class="cls-7" points="153 946.5 56.5 946 86.5 917 86.5 916 67.5 918 68 916.5 91 880.5 91.5 881 74.5 887 104.5 842 136.5 888 116.5 882 143.5 919 123.5 915 154.5 946"/><polyline class="cls-7" points="1095 926.5 998.5 926 1028.5 897 1028.5 896 1009.5 898 1010 896.5 1033 860.5 1033.5 861 1016.5 867 1046.5 822 1078.5 868 1058.5 862 1085.5 899 1065.5 895 1096.5 926"/><polyline class="cls-7" points="377 978.5 280.5 978 310.5 949 310.5 948 291.5 950 292 948.5 315 912.5 315.5 913 298.5 919 328.5 874 360.5 920 340.5 914 367.5 951 347.5 947 378.5 978"/><polyline class="cls-7" points="470 1029.5 373.5 1028.77 403.5 986.17 403.5 984.7 384.5 987.64 385 985.43 408 932.55 408.5 933.29 391.5 942.1 421.5 876 453.5 943.57 433.5 934.76 460.5 989.11 440.5 983.23 471.5 1028.77"/><polyline class="cls-7" points="240 952.5 143.5 951.77 173.5 909.17 173.5 907.7 154.5 910.64 155 908.43 178 855.55 178.5 856.29 161.5 865.1 191.5 799 223.5 866.57 203.5 857.76 230.5 912.11 210.5 906.23 241.5 951.77"/><polyline class="cls-7" points="949 954.5 852.5 953.77 882.5 911.17 882.5 909.7 863.5 912.64 864 910.43 887 857.55 887.5 858.29 870.5 867.1 900.5 801 932.5 868.57 912.5 859.76 939.5 914.11 919.5 908.23 950.5 953.77"/><polyline class="cls-6" points="556.97 1032.5 622 1034.61 621.99 1033.61 599.14 971.92 612.22 977.74 595.29 909.96 611.52 926.74 609.44 920.77 586.22 832.08 583.72 832.61 565.92 919.87 565.47 923.37 578.32 912.2 562.25 980.42 575.18 975.25 556.95 1031.5"/><polyline class="cls-7" points="806 1002.5 709.5 1001.77 739.5 959.17 739.5 957.7 720.5 960.64 721 958.43 744 905.55 744.5 906.29 727.5 915.1 757.5 849 789.5 916.57 769.5 907.76 796.5 962.11 776.5 956.23 807.5 1001.77"/><path class="cls-4" d="M1087,900c-110.19-10.2-219.59,13.41-328,79l-25.52,12.27C654.39,1044.86,552,1050.73,422,1000l-16-8C269.57,923.52,134.12,896.89,0,927v321H1087Z" transform="translate(9 29)"/><path class="cls-8" d="M1087,336.53A268.36,268.36,0,0,1,1034,314c2.5-27.41,4.29-53.84-21-43l-2-4c-7.65-36.54-24.17-46.94-53-21l-3-1c1.53-31.06-8.2-45.45-34-36h-1q-4.5-22.5-19-12h-1c-7.55-27.67-39.9-56.57-62-16h-1q-13.5-4-16,8l-.5,1.5c-36.27-5.27-49,23.59-53,65l-.5.5q-9.5-5-19,6l-3.5,3.5q-9-8-18-1h-1c-51.09-48.85-97.83-27.26-114,43l-1,1c-26.5-15.69-45-1.78-59,29l-1.5.5q-13-2-16,6h-1q-17-10-34,7h-1c-19.66-3-36.65.94-52,9v1c30.05,5.67,61.87,6.59,95,4h1c18.64,2.1,36.38,2,53-1h1c38.5,12.32,79,13,122,0l4.5-1.5q17.5,12.5,35,0l.5-.5c33.12,10.58,66.46,9,100-3h1q19.5,12.5,23-2l.5-.5q36,26.5,72,3h2c12.88,11.8,25.87,11.89,39-1l.5-.5c20.22,12.45,43.16,12.54,68,4l3-1c7,2.81,13.78,4.26,20,3.73Z" transform="translate(9 29)"/><path class="cls-2" d="M517.89,547.18a265.48,265.48,0,0,1-61.84,2.1l-1.69.8q-37.07,9.42-70.67,1.1l-1.65-.55q-12.15,6.07-24.29-1.11c-21.07,14.06-44.25,14.53-69.57,1.11h-1.1c-14.12,5.4-28.41,6.87-43.06,0h-1.11a38.79,38.79,0,0,1-28.71,1.1l-2.76,0c-20.7,4.95-42.58,4.49-69.56,0v-3.82q23.19-27.24,46.38-15.46l.55-2.76q11.77-28.35,33.12-11l.56-2.76c11.9-95.8,73.34-114,142.43-53,14.87-5.23,21,.43,23.19,11,10.43-2.61,18.49-1.48,22.09,6.62l.55.55c1.44-1.05,15.75-11.15,28.15-6.07,13.56,5.56,21.85,28,11.05,50.79,23.81-6.38,47.76,3.37,71.77,19.88Z" transform="translate(9 29)"/></svg>