<svg id="Layer_1" data-name="Layer 1" xmlns="http://www.w3.org/2000/svg" xmlns:xlink="http://www.w3.org/1999/xlink" viewBox="0 0 1374 2011"><defs><style>.cls-1{fill:url(#linear-gradient);}.cls-2,.cls-4{fill:#fff;stroke:#fff;}.cls-2,.cls-3,.cls-4,.cls-5,.cls-6,.cls-7,.cls-8{stroke-miterlimit:10;}.cls-2{stroke-width:11px;}.cls-3{fill:#9ed4f0;stroke:#9ed4f0;}.cls-3,.cls-5{stroke-width:4px;}.cls-4{stroke-width:5px;}.cls-5{fill:#71b9df;stroke:#71b9df;}.cls-6,.cls-7,.cls-8{fill:#39b54a;stroke:#39b54a;}.cls-6{stroke-width:10px;}.cls-7{stroke-width:2px;}</style><linearGradient id="linear-gradient" x1="141.5" y1="959" x2="1541.5" y2="959" gradientTransform="translate(-268.5 1541.5) rotate(-90)" gradientUnits="userSpaceOnUse"><stop offset="0.06" stop-color="#fff"/><stop offset="0.08" stop-color="#f9ffff"/><stop offset="0.22" stop-color="#cfffff"/><stop offset="0.35" stop-color="#aeffff"/><stop offset="0.48" stop-color="#97ffff"/><stop offset="0.6" stop-color="#89ffff"/><stop offset="0.7" stop-color="#84ffff"/><stop offset="0.75" stop-color="#72fcff"/><stop offset="0.86" stop-color="#44f2ff"/><stop offset="1" stop-color="#00e5ff"/></linearGradient></defs><title>gameBackground</title><rect class="cls-1" x="9" width="1363" height="1400"/><path class="cls-2" d="M17,182.43c34.51,1.53,75.87,7.7,75.87,7.7H95c-1.31-6.47,95.15,11.66,106.67,3.3h1.1q10.44,6.6,20.89,0a129.74,129.74,0,0,0,75.87,0q36.3,20.9,72.58,3.3a74.55,74.55,0,0,0,47.28,0c43.86-2.87,48.94-59.84-5.49-58.29,21.62-24.25,22.75-64.77-11-68.17l-.55-.55c-26.63-39.8-69.33-35.4-85.29,9.84l-1,.6q-19.8-4.39-28.59,17.6l-2.2,2.2Q217.64,75.21,205,147.24l-.63,2.49q-6.69.38-19,9.94l-1.83-.33q-10.44-6-20.89,0l-1.65-1.1c-8.11-6.82-22.26-2.67-38.88,6l-.71.62C94.47,176,59.53,180.91,20.26,182.43" transform="translate(146 29)"/><path class="cls-3" d="M455.91,675.19l4.7-59.59c-12.9-7.62-17.09-17.47-25.81-13.67l-13.17,12.74q-20-11.42-51.69-22.65c-21.78,11.91-41.8,28.22-60.44,48L309,677.58Z" transform="translate(146 29)"/><path class="cls-3" d="M108,649-14,733l5-98q25.5-41.5,51-61l2-2q41,37.5,66,75" transform="translate(146 29)"/><path class="cls-4" d="M1222,356c-43.19,5.83-83.64,7.89-119,3v-2c-9.06,9.78-22.27,9.55-36,4l-3,1c-24.84,8.54-47.78,8.45-68-4l-.5.5c-13.13,12.89-26.12,12.8-39,1h-2q-36,23.5-72-3l-.5.5q-3.5,14.5-23,2h-1c-33.54,12-66.88,13.58-100,3l-.5.5q-17.5,12.5-35,0L718,364c-43,13-83.5,12.32-122,0h-1c-16.62,3-34.36,3.1-53,1h-1c-33.13,2.59-64.95,1.67-95-4v-1c15.35-8.06,32.34-12,52-9h1q17-17,34-7h1q3-8,16-6l1.5-.5c14-30.78,32.5-44.69,59-29l1-1c16.17-70.26,62.91-91.85,114-43h1q9-7,18,1L748,262q9.5-11,19-6l.5-.5c4-41.41,16.73-70.27,53-65l.5-1.5q2.5-12,16-8h1c22.1-40.57,54.45-11.67,62,16h1q14.5-10.5,19,12h1c25.8-9.45,35.53,4.94,34,36l3,1c28.83-25.94,45.35-15.54,53,21l2,4c25.29-10.84,23.5,15.59,21,43,51.62,29.15,116,40.09,188,40" transform="translate(146 29)"/><path class="cls-3" d="M1128.71,661.59,957,779.85l-12.12-165.8q31-65.46,66.55-93.49l2.69-3q71,72.13,117.33,141" transform="translate(146 29)"/><path class="cls-5" d="M1162.64,1019.79,1096.78,684l-28-18.81-41,32.63c-63-68.08-123.88-128.5-177.68-164.25L806.88,573c-46-49.35-98.22-97.22-156.14-143.71h-1.32q-33.84,31.77-54.42,63.5l-17.3-17.11L574.91,474c-58.63,54.16-114,121.52-166.4,200.8l-1.18,1.72C342.77,630.88,278.53,594.6,214.81,574h-1.32C106.19,622.5,9,684-75.89,761.28l22.55,275.9Z" transform="translate(146 29)"/><path class="cls-2" d="M517.89,547.18a265.48,265.48,0,0,1-61.84,2.1l-1.69.8q-37.07,9.42-70.67,1.1l-1.65-.55q-12.15,6.07-24.29-1.11c-21.07,14.06-44.25,14.53-69.57,1.11h-1.1c-14.12,5.4-28.41,6.87-43.06,0h-1.11a38.79,38.79,0,0,1-28.71,1.1l-2.76,0c-20.7,4.95-42.58,4.49-69.56,0v-3.82q23.19-27.24,46.38-15.46l.55-2.76q11.77-28.35,33.12-11l.56-2.76c11.9-95.8,73.34-114,142.43-53,14.87-5.23,21,.43,23.19,11,10.43-2.61,18.49-1.48,22.09,6.62l.55.55c1.44-1.05,15.75-11.15,28.15-6.07,13.56,5.56,21.85,28,11.05,50.79,23.81-6.38,47.76,3.37,71.77,19.88Z" transform="translate(146 29)"/><polygon class="cls-6" points="991 963 1009 1086 425 1102 378 1107 991 963"/><polyline class="cls-7" points="139.36 960.5 204.4 962.61 204.38 961.61 181.53 899.92 194.62 905.74 177.68 837.96 193.92 854.74 191.83 848.77 168.61 760.08 166.12 760.61 148.32 847.87 147.87 851.37 160.71 840.2 144.65 908.42 157.58 903.25 139.35 959.5"/><polyline class="cls-7" points="616.97 1045.5 682 1047.61 681.99 1046.61 659.14 984.92 672.22 990.74 655.29 922.96 671.52 939.74 669.44 933.77 646.22 845.08 643.72 845.61 625.92 932.87 625.47 936.37 638.32 925.2 622.25 993.42 635.18 988.25 616.95 1044.5"/><polyline class="cls-7" points="1081.96 960.5 1147 962.61 1146.99 961.61 1124.14 899.92 1137.22 905.74 1120.29 837.96 1136.52 854.74 1134.44 848.77 1111.21 760.08 1108.72 760.61 1090.92 847.87 1090.47 851.37 1103.32 840.2 1087.25 908.42 1100.18 903.25 1081.95 959.5"/><polyline class="cls-7" points="360.96 986.5 426 988.61 425.99 987.61 403.14 925.92 416.22 931.74 399.29 863.96 415.52 880.74 413.44 874.77 390.21 786.08 387.72 786.61 369.92 873.87 369.47 877.37 382.31 866.2 366.25 934.42 379.18 929.25 360.95 985.5"/><polyline class="cls-7" points="934.97 983.5 1000 985.61 999.99 984.61 977.14 922.92 990.22 928.74 973.29 860.96 989.52 877.74 987.44 871.77 964.22 783.08 961.72 783.61 943.92 870.87 943.47 874.37 956.32 863.2 940.25 931.42 953.18 926.25 934.95 982.5"/><polyline class="cls-8" points="869 1006.5 772.5 1006 802.5 977 802.5 976 783.5 978 784 976.5 807 940.5 807.5 941 790.5 947 820.5 902 852.5 948 832.5 942 859.5 979 839.5 975 870.5 1006"/><polyline class="cls-8" points="290 946.5 193.5 946 223.5 917 223.5 916 204.5 918 205 916.5 228 880.5 228.5 881 211.5 887 241.5 842 273.5 888 253.5 882 280.5 919 260.5 915 291.5 946"/><polyline class="cls-8" points="1232 926.5 1135.5 926 1165.5 897 1165.5 896 1146.5 898 1147 896.5 1170 860.5 1170.5 861 1153.5 867 1183.5 822 1215.5 868 1195.5 862 1222.5 899 1202.5 895 1233.5 926"/><polyline class="cls-8" points="514 978.5 417.5 978 447.5 949 447.5 948 428.5 950 429 948.5 452 912.5 452.5 913 435.5 919 465.5 874 497.5 920 477.5 914 504.5 951 484.5 947 515.5 978"/><polyline class="cls-8" points="607 1029.5 510.5 1028.77 540.5 986.17 540.5 984.7 521.5 987.64 522 985.43 545 932.55 545.5 933.29 528.5 942.1 558.5 876 590.5 943.57 570.5 934.76 597.5 989.11 577.5 983.23 608.5 1028.77"/><polyline class="cls-8" points="377 952.5 280.5 951.77 310.5 909.17 310.5 907.7 291.5 910.64 292 908.43 315 855.55 315.5 856.29 298.5 865.1 328.5 799 360.5 866.57 340.5 857.76 367.5 912.11 347.5 906.23 378.5 951.77"/><polyline class="cls-8" points="1086 954.5 989.5 953.77 1019.5 911.17 1019.5 909.7 1000.5 912.64 1001 910.43 1024 857.55 1024.5 858.29 1007.5 867.1 1037.5 801 1069.5 868.57 1049.5 859.76 1076.5 914.11 1056.5 908.23 1087.5 953.77"/><polyline class="cls-7" points="693.97 1032.5 759 1034.61 758.99 1033.61 736.14 971.92 749.22 977.74 732.29 909.96 748.52 926.74 746.44 920.77 723.22 832.08 720.72 832.61 702.92 919.87 702.47 923.37 715.32 912.2 699.25 980.42 712.18 975.25 693.95 1031.5"/><polyline class="cls-8" points="943 1002.5 846.5 1001.77 876.5 959.17 876.5 957.7 857.5 960.64 858 958.43 881 905.55 881.5 906.29 864.5 915.1 894.5 849 926.5 916.57 906.5 907.76 933.5 962.11 913.5 956.23 944.5 1001.77"/><path class="cls-6" d="M1222,928.75c-155.93-51.23-310.44-42-463,50.25l-25.52,12.27C654.39,1044.86,552,1050.73,422,1000l-16-8C221.58,899.43,39,883.3-141,980.55V1248H1222Z" transform="translate(146 29)"/><rect class="cls-6" x="6" y="1066" width="1363" height="940"/></svg>