<svg id="Layer_1" data-name="Layer 1" xmlns="http://www.w3.org/2000/svg" viewBox="0 0 724.53 614.07"><defs><style>.cls-1{fill:#666;}.cls-2,.cls-5{fill:#ccc;}.cls-2{stroke:#ccc;}.cls-10,.cls-12,.cls-13,.cls-14,.cls-15,.cls-16,.cls-17,.cls-18,.cls-2,.cls-3,.cls-9{stroke-miterlimit:10;}.cls-3,.cls-7{fill:#e6e6e6;}.cls-10,.cls-12,.cls-13,.cls-14,.cls-15,.cls-16,.cls-17,.cls-18,.cls-3,.cls-9{stroke:gray;}.cls-15,.cls-3{stroke-width:8px;}.cls-4{fill:#b3b3b3;}.cls-13,.cls-14,.cls-6{fill:gray;}.cls-8{fill:#999;}.cls-11,.cls-9{fill:#e0ffff;}.cls-10,.cls-9{stroke-width:5px;}.cls-10,.cls-12,.cls-15,.cls-16,.cls-17,.cls-18{fill:none;}.cls-12,.cls-13{stroke-width:3px;}.cls-14,.cls-17{stroke-width:4px;}.cls-16{stroke-width:6px;}.cls-18{stroke-width:7px;}</style></defs><title>hangar2</title><polygon class="cls-1" points="25.53 614.07 0.53 568.33 0.53 372.07 25.53 398.87 25.53 614.07"/><polygon class="cls-2" points="93.03 403.57 25.53 403.57 1.03 372.57 93.03 372.57 93.03 403.57"/><rect class="cls-3" x="107.28" y="233.07" width="51" height="220"/><rect class="cls-4" x="111.53" y="242.07" width="7" height="110"/><path class="cls-5" d="M727,427V393.24h-.62C669.81,324.59,578.45,280,475.35,280,373.27,280,282.69,323.73,226,391.24V427Z" transform="translate(-137.47 -18.93)"/><path class="cls-6" d="M753.38,420.24C696.81,351.59,605.45,307,502.35,307s-194.45,44.59-251,113.24H163V628.49h28.4V629H813.31v-.51H843V420.24Z" transform="translate(-137.47 -18.93)"/><path class="cls-7" d="M748.51,430.08C693.29,363.35,604.12,320,503.5,320s-189.8,43.35-245,110.08H163V632.5h37v.5H807v-.5h36V430.08Z" transform="translate(-137.47 -18.93)"/><rect class="cls-1" x="120.53" y="448.07" width="491" height="9.83"/><rect class="cls-1" x="120.53" y="448.07" width="13.85" height="166"/><rect class="cls-1" x="597.69" y="448.07" width="13.85" height="166"/><path class="cls-5" d="M155,635" transform="translate(-137.47 -18.93)"/><rect class="cls-8" x="134.38" y="457.9" width="463.31" height="156.17"/><rect class="cls-6" x="56.77" y="561.07" width="27.76" height="53"/><rect class="cls-9" x="203.53" y="366.07" width="315" height="44"/><line class="cls-10" x1="251.03" y1="365.57" x2="251.03" y2="409.57"/><line class="cls-10" x1="296.03" y1="366.07" x2="296.03" y2="410.07"/><line class="cls-10" x1="339.03" y1="365.57" x2="339.03" y2="409.57"/><line class="cls-10" x1="384.03" y1="366.07" x2="384.03" y2="410.07"/><line class="cls-10" x1="428.03" y1="365.57" x2="428.03" y2="409.57"/><line class="cls-10" x1="473.03" y1="366.07" x2="473.03" y2="410.07"/><rect class="cls-6" x="6.53" y="401.07" width="103" height="10"/><rect class="cls-6" x="633.53" y="401.07" width="91" height="10"/><polygon class="cls-3" points="193.78 127.07 84.78 127.07 42.78 127.07 82.17 233.07 111.78 233.07 164.24 233.07 186.78 233.07 222.78 127.07 193.78 127.07"/><polygon class="cls-4" points="121.91 125.04 92.06 124.3 43.37 123.1 86.35 230.19 120.68 231.04 121.91 125.04"/><polygon class="cls-11" points="193.95 194.07 208.68 151.07 57.03 151.07 73.15 194.07 193.95 194.07"/><line class="cls-12" x1="102.53" y1="151.07" x2="110.53" y2="194.07"/><line class="cls-12" x1="161.03" y1="151.57" x2="156.03" y2="194.57"/><line class="cls-12" x1="53.03" y1="150.57" x2="215.03" y2="150.57"/><line class="cls-12" x1="67.03" y1="193.57" x2="198.03" y2="193.57"/><path class="cls-13" d="M389.5,148h-234V129L276.83,106.5,389.5,129Z" transform="translate(-137.47 -18.93)"/><polygon class="cls-13" points="168.03 215.57 61.03 215.57 59.53 215.57 65.58 240.57 67.03 240.57 163.63 240.57 200.78 240.57 209.03 215.57 168.03 215.57"/><path class="cls-13" d="M439.5,191.5" transform="translate(-137.47 -18.93)"/><rect class="cls-14" x="8.53" y="43.07" width="40" height="29"/><line class="cls-15" x1="49.03" y1="32.57" x2="49.03" y2="125.57"/><rect class="cls-14" x="184" y="57" width="40" height="29" transform="translate(-148.69 32.38) rotate(-13.96)"/><line class="cls-16" x1="186.53" y1="97.07" x2="208.53" y2="20.07"/><line class="cls-17" x1="187.53" y1="31.07" x2="214.53" y2="40.07"/><line class="cls-17" x1="174.53" y1="45.07" x2="222.53" y2="60.07"/><line class="cls-17" x1="158.53" y1="58.07" x2="228.53" y2="79.07"/><line class="cls-17" x1="150.53" y1="68.07" x2="234.53" y2="90.07"/><line class="cls-16" x1="116.53" y1="34.07" x2="116.53" y2="93.07"/><line class="cls-18" x1="136.53" y1="0.07" x2="134.53" y2="101.07"/><rect class="cls-5" x="59.03" y="587.07" width="24" height="6"/></svg>