<svg id="Layer_1" data-name="Layer 1" xmlns="http://www.w3.org/2000/svg" viewBox="0 0 1024.32 560.86"><defs><style>.cls-1,.cls-2{fill:gray;}.cls-12,.cls-2,.cls-4,.cls-5,.cls-6,.cls-9{stroke:#000;}.cls-10,.cls-12,.cls-2,.cls-4,.cls-5,.cls-6,.cls-8,.cls-9{stroke-miterlimit:10;}.cls-2,.cls-4,.cls-5,.cls-6,.cls-8{stroke-width:15px;}.cls-3{fill:#b3b3b3;}.cls-10,.cls-4,.cls-8,.cls-9{fill:none;}.cls-5{fill:blue;}.cls-6{fill:#00e6ff;}.cls-7{fill:#4d4d4d;}.cls-10,.cls-8{stroke:#b3b3b3;}.cls-10,.cls-9{stroke-width:10px;}.cls-11{fill:#c0e6ff;}.cls-12{fill:#fff;stroke-width:8px;}</style></defs><title>plane</title><rect class="cls-1" x="156.78" y="336.84" width="72.82" height="59" transform="translate(308.5 507.33) rotate(-174.48)"/><rect class="cls-1" x="177.91" y="396.27" width="330.06" height="162.5" transform="translate(596.6 743.6) rotate(-174.48)"/><ellipse class="cls-2" cx="563.26" cy="690.53" rx="32.57" ry="111.65" transform="translate(-257.02 881.79) rotate(-79.91)"/><path class="cls-3" d="M617.9,673.14l-5.49,56.8c33.47.2,57.07-6.25,59.09-18.06C673.6,699.59,651.74,684.7,617.9,673.14Z" transform="translate(-41.71 -242.25)"/><ellipse class="cls-1" cx="461.23" cy="580.64" rx="33.5" ry="84.79" transform="translate(-202.83 741.58) rotate(-84.48)"/><path class="cls-2" d="M410.29,725.07c-2.83,8.58,19.44,26,40.38,34.39,36.81,14.74,81.08,6.21,82.66-4.73,1.52-10.44-35.67-24.37-58.06-29.93C451.06,718.79,413.62,715,410.29,725.07Z" transform="translate(-41.71 -242.25)"/><path class="cls-2" d="M333.48,756.21c-2,7.32,24,21.93,44.4,29.36,33.56,12.21,73.5,12.83,75.7,4.25,2.06-8.07-29.26-24.68-56-32.25C369.89,749.71,335.62,748.33,333.48,756.21Z" transform="translate(-41.71 -242.25)"/><path class="cls-3" d="M494.11,727.29l-3.7,38.24c25.19,1.56,46.5-4.83,47.6-12.36C539.23,744.74,515.2,734,494.11,727.29Z" transform="translate(-41.71 -242.25)"/><ellipse class="cls-4" cx="564.25" cy="690.63" rx="32.57" ry="111.65" transform="translate(-256.3 882.85) rotate(-79.91)"/><path class="cls-4" d="M410.29,725.07c-2.83,8.58,19.44,26,40.38,34.39,36.81,14.74,81.08,6.21,82.66-4.73,1.52-10.44-35.67-24.37-58.06-29.93C451.06,718.79,413.62,715,410.29,725.07Z" transform="translate(-41.71 -242.25)"/><path class="cls-3" d="M417.2,764.22l-2.91,30.09c21.1,2.81,38.36,1.12,39.78-4.44C455.65,783.69,437.69,772.52,417.2,764.22Z" transform="translate(-41.71 -242.25)"/><path class="cls-4" d="M333.48,756.21c-2,7.32,24,21.93,44.4,29.36,33.56,12.21,73.5,12.83,75.7,4.25,2.06-8.07-29.26-24.68-56-32.25C369.89,749.71,335.62,748.33,333.48,756.21Z" transform="translate(-41.71 -242.25)"/><ellipse class="cls-1" cx="236.52" cy="381.08" rx="20.5" ry="29.7" transform="translate(-207.27 337.57) rotate(-84.48)"/><path class="cls-2" d="M182.87,333.69l-50.42-36-11.26,6.95L92.36,334l-6.3,5.42L166,428.51l24.41,6.38L179.77,276.13l7.45-7.32,22.08-4.39,7.4-1.8q78.15,29,145.64,115.9l20.84,33.82-5-157.21,11.92-3.87a448.84,448.84,0,0,1,134.6,71.29A466.39,466.39,0,0,1,627.6,433a115.29,115.29,0,0,1,59.59,10.79,120.5,120.5,0,0,1,47.94,41.81,368,368,0,0,1,188.51,41.34c69.73,36.47,111.77,86.82,132.27,115.27l-.52.45a1336.46,1336.46,0,0,1-229.5,34.07,1328.11,1328.11,0,0,1-236.13-6.77c-169.24,112.59-274.44,105.57-296.82,123s-2.74-88.49,57.4-195.38l-21.93,42.59-66.28-1.39q-52.5,58.72-134.29,114.61l3.15-2.71L51.47,726.87l-3.15,2.71L165.64,611.32l.39-4L116.77,439.82l-.08-9.05A188.46,188.46,0,0,1,166,428.51c86,7.53,123.62,72.68,208.09,117.58,30,15.94,75.93,34.67,140.45,40.71" transform="translate(-41.71 -242.25)"/><path class="cls-3" d="M192,419.17q-5.72,8.52-11.42,17.06L97,341.24l12.46-15.12Z" transform="translate(-41.71 -242.25)"/><path class="cls-3" d="M217.1,430.49l-21.62,4.59-9-169.07,21.22-1.78Q212.38,347.36,217.1,430.49Z" transform="translate(-41.71 -242.25)"/><path class="cls-5" d="M852.24,498.83a364.9,364.9,0,0,1,70.45,28c69.73,36.47,111.76,86.82,132.27,115.27l-.52.45A1338.85,1338.85,0,0,1,835.11,676Q818.78,585,852.24,498.83Z" transform="translate(-41.71 -242.25)"/><ellipse class="cls-6" cx="830.07" cy="543.98" rx="47.99" ry="133.69" transform="translate(107.05 1023.36) rotate(-79.88)"/><path class="cls-3" d="M186.91,587.65l-16.65,18.6q-23.76-86.7-47.53-173.39l29.86,2.89Z" transform="translate(-41.71 -242.25)"/><path class="cls-7" d="M55.41,599.16" transform="translate(-41.71 -242.25)"/><path class="cls-8" d="M568.52,464.94c70.52-28.15,116-25.7,171.33,25.62" transform="translate(-41.71 -242.25)"/><path class="cls-3" d="M85.66,741.49,53.41,729.06,187.12,587.78l10.41,29.3Z" transform="translate(-41.71 -242.25)"/><path class="cls-3" d="M415.32,437.31l-23.82,5.6q-7.42-97.74-14.84-195.48l23.45-2.35Z" transform="translate(-41.71 -242.25)"/><path class="cls-3" d="M277.4,784.84a10.86,10.86,0,0,0,2.6.16,6.49,6.49,0,0,0,2.27-.61c-2-.34-3.75-.64-5.19-.86C277.18,784,277.29,784.4,277.4,784.84Z" transform="translate(-41.71 -242.25)"/><path class="cls-3" d="M357.05,600.72C330.76,635.89,317.89,667.59,311,691c-11.59,39.37-15.73,87.43-28.73,93.39,6.57,1.15,15.72,2.87,24.73,4.61a419.94,419.94,0,0,1,74.33-178.88Z" transform="translate(-41.71 -242.25)"/><path class="cls-4" d="M181.58,332.56l-50.42-36-11.26,6.95L91.07,332.85l-6.3,5.42,79.94,89.11,24.41,6.38L178.49,275l7.44-7.32L208,263.29l7.39-1.8q78.15,29,145.64,115.9l20.84,33.83-5-157.22,11.93-3.87a449,449,0,0,1,134.6,71.29,466.7,466.7,0,0,1,102.9,110.42,115.34,115.34,0,0,1,59.6,10.79,120.53,120.53,0,0,1,47.93,41.81,368.06,368.06,0,0,1,188.52,41.34c69.72,36.47,111.76,86.82,132.27,115.27l-.53.45a1336.48,1336.48,0,0,1-229.49,34.07,1328.2,1328.2,0,0,1-236.14-6.77C419.23,781.39,314,774.37,291.65,791.8s-2.73-88.5,57.4-195.39L327.13,639l-66.29-1.39q-52.5,58.73-134.29,114.61l3.15-2.71L50.18,725.74,47,728.45,164.35,610.2l.39-4L115.49,438.69l-.09-9.05a188.46,188.46,0,0,1,49.31-2.26c86,7.53,123.63,72.68,208.09,117.58,30,15.94,75.93,34.68,140.45,40.71" transform="translate(-41.71 -242.25)"/><path class="cls-7" d="M325.39,238.47" transform="translate(-41.71 -242.25)"/><path class="cls-9" d="M698.63,513.69A1237.38,1237.38,0,0,0,358,503.84" transform="translate(-41.71 -242.25)"/><path class="cls-10" d="M703.64,524.12a1268.69,1268.69,0,0,0-344.93-10" transform="translate(-41.71 -242.25)"/><path class="cls-11" d="M960.21,581.19c3.33-32.58-50.8-70-122.29-84.22-71.25-14.14-133.26.09-140.3,31.79,30.12-8.49,80.93-17.89,141.47-4.68C894.41,536.16,935.48,562.23,960.21,581.19Z" transform="translate(-41.71 -242.25)"/><ellipse class="cls-4" cx="830.07" cy="543.98" rx="47.99" ry="133.69" transform="translate(107.05 1023.36) rotate(-79.88)"/><path class="cls-9" d="M628.82,435.6c-24.38,1.44-53.27,12.6-66.49,22.71" transform="translate(-41.71 -242.25)"/><polygon class="cls-12" points="594.56 300.05 610.28 330.01 643.88 334.05 620.24 358.26 626.78 391.46 596.45 376.46 566.89 392.94 571.79 359.46 546.98 336.44 580.34 330.75 594.56 300.05"/><path class="cls-3" d="M221,842" transform="translate(-41.71 -242.25)"/></svg>